# xmcd
#
# Track frame offsets: 
#        150
#        15122
#        29305
#        43997
#        58210
#        73670
#        88530
#        106035
#        126280
#        139377
#        151337
#        161967
#        172727
#        186887
#
# Disc length: 2845 seconds
#
# Revision: 3
# Processed by: cddbd v1.5.2PL0 Copyright (c) Steve Scherf et al.
# Submitted via: ExactAudioCopyFreeDBPlugin 1.0
#
DISCID=b90b1b0e
DTITLE=Various Artist - Mr. Music Country 08-97
DYEAR=1900
DGENRE=Country
TTITLE0=Prairie Oyster - Louisiette
TTITLE1=Lorrie Morgan - I Just Might Be
TTITLE2=Aaron Tippin - If Only Your Eyes Could Lie
TTITLE3=Clay Walker - I Need a Margarita
TTITLE4=Chris Ward - Somewhere between Goodbye and Gone
TTITLE5=Carlene Carter - The Winding Stream
TTITLE6=The Kentucky Headhunters - See Rock City
TTITLE7=Billy Joe Shaver and Waylon Jennings - Oklahoma Winds
TTITLE8=Lonestar - Does Your Daddy
TTITLE9=Helen Dunnaway - Tears Ago
TTITLE10=Daryle Singletary - The Used to Be's
TTITLE11=Lari White - Wild at Heart
TTITLE12=Dale Watson - Unspoken Kind
TTITLE13=W.C. Taylor Jr. - Is There a Song on the jukebox about Jesus
EXTD=
EXTT0=
EXTT1=
EXTT2=
EXTT3=
EXTT4=
EXTT5=
EXTT6=
EXTT7=
EXTT8=
EXTT9=
EXTT10=
EXTT11=
EXTT12=
EXTT13=
PLAYORDER=
